<svg width="264" height="113" viewBox="0 0 264 113" fill="none" xmlns="http://www.w3.org/2000/svg">
<rect opacity="0.1" width="263.266" height="112.119" rx="14.1923" fill="url(#paint0_linear_2422_2053)"/>
<path d="M68.2404 40.5869C64.8818 38.4355 61.2429 36.8532 57.43 35.6714C55.1394 34.4317 52.6168 33.819 50.1812 32.9845C48.2482 32.3381 46.3152 31.6917 44.3822 31.0405C42.9324 30.5581 41.4827 30.0757 40.0329 29.5933C38.6218 29.082 37.2107 28.5659 35.703 28.4211C34.5915 27.5914 33.1852 27.495 31.9578 26.945C30.1504 26.289 28.343 25.633 26.5308 24.9817C26.584 26.2649 26.8788 27.4853 27.2509 28.6865C26.8788 27.4853 26.5791 26.2649 26.5308 24.9817C24.2692 24.1086 22.0076 23.2355 19.7459 22.3576C17.7066 21.6919 15.6625 21.0503 13.4685 21.4844C9.9939 21.7112 7.90624 23.7372 6.74644 26.8148C5.77027 29.4052 5.50931 32.1403 5.83792 34.8706C7.52447 48.8695 14.0387 60.4274 24.1001 70.2295C22.0027 66.52 21.4277 62.4293 20.7656 58.3628C20.7559 50.3263 20.7511 42.2897 20.7414 34.2532C21.2344 33.5682 22.0221 33.9445 22.6455 33.7177C24.7621 33.8094 26.8933 33.819 28.9278 34.533C30.6868 35.3675 31.5422 36.9256 32.2429 38.6188C32.4603 38.9661 32.6053 39.3134 32.6971 39.6704C32.6005 39.3134 32.4555 38.9613 32.2429 38.6188C32.2864 44.7065 32.325 50.7942 32.3685 56.8819C32.3395 59.7666 32.7213 62.603 33.7313 65.3044C35.1231 69.0235 37.665 70.7939 41.4778 70.8759C42.7971 70.9917 44.1309 71.2136 45.3777 70.5286C46.7791 70.4369 47.8858 69.7809 48.7943 68.7486C50.0266 67.8996 50.6258 66.6116 51.1961 65.3044C52.0321 64.2479 52.2109 62.96 52.4767 61.7009C52.5298 61.0931 52.583 60.4853 52.6313 59.8775C53.4045 55.5119 52.7715 51.1029 53.0034 46.7229C53.1242 44.4315 51.9838 41.4021 53.5157 40.0515C55.0234 38.7249 57.9616 39.844 60.2619 40.0804L60.3006 40.0901C60.4649 40.1721 60.6243 40.2541 60.7886 40.3312C62.9488 41.3346 64.0699 43.0471 64.1859 45.4011C64.2777 47.2342 64.3647 49.0673 64.3695 50.9003C64.3937 57.7695 64.3695 64.6435 64.4227 71.5127C64.4227 71.942 63.7655 73.0611 65.1572 72.8633C66.6553 71.7924 67.9746 70.5431 69.0184 69.0187C72.0436 65.6372 74.0153 61.7492 74.9818 57.2968C76.5862 49.9018 74.5372 44.6245 68.2307 40.5773L68.2404 40.5869ZM52.1142 39.5691C52.1142 44.0697 52.1046 48.5704 52.0997 53.0711C52.0997 48.5704 52.1094 44.0697 52.1142 39.5691Z" fill="white"/>
<path d="M185.362 53.611C184.893 50.9675 183.482 48.7727 180.723 47.9623C178.316 47.2532 176.078 47.6873 174.445 49.7809C173.822 50.5816 173.57 50.4031 172.908 49.7374C170.502 47.3159 168.143 47.0795 165.128 48.7775C164.727 49.0042 164.553 49.2116 163.958 48.9029C160.518 47.147 160.276 47.3255 160.276 51.1171C160.276 51.8406 160.276 52.5594 160.276 53.283C160.276 56.3316 160.276 59.3852 160.291 62.4338C160.3 64.4599 161.639 65.0001 163.335 65.0242C165.37 65.0532 164.432 63.4661 164.548 62.5544C164.688 61.4498 164.582 60.3113 164.582 58.7098C164.688 57.1903 164.355 55.1643 164.896 53.201C165.307 51.72 166.283 50.9048 167.887 50.953C169.564 51.0061 170.328 51.9709 170.482 53.529C170.608 54.8025 170.739 56.0808 170.787 57.364C170.855 59.2067 170.772 61.059 170.898 62.8969C171.019 64.6962 172.44 64.9615 173.865 65.0242C175.716 65.1014 175.006 63.6543 175.073 62.7763C175.17 61.498 175.073 60.21 175.107 58.9269C175.155 57.1662 175.107 55.3814 175.363 53.6448C175.61 51.995 176.6 50.8855 178.485 50.9579C180.312 51.0302 181.003 52.1735 181.104 53.7895C181.23 55.7914 181.264 57.7933 181.356 59.7952C181.409 60.9963 181.346 62.2216 181.597 63.3841C181.916 64.8458 183.25 64.9278 184.473 65.0387C185.289 65.1111 185.657 64.7638 185.642 63.9437C185.574 60.4946 185.961 57.0166 185.357 53.611H185.362Z" fill="white"/>
<path d="M222.519 43.8764C222.519 43.4327 222.282 42.9165 221.997 42.5595C221.209 41.5755 220.045 41.4211 218.929 41.6285C217.74 41.8553 218.339 42.9358 218.31 43.6208C218.228 45.3767 218.281 47.1422 218.281 49.1537C216.831 48.6665 215.816 47.8417 214.492 47.7355C210.244 47.4027 206.896 50.3549 206.282 55.063C205.668 59.7325 208.742 64.3923 212.902 65.0966C217.469 65.8684 221.325 63.5626 222.166 59.2018C223.142 54.1416 222.476 48.9849 222.519 43.8764ZM217.488 60.1425C216.304 62.6509 213.545 62.786 211.892 60.5236C210.902 59.1681 210.733 57.5762 210.588 55.9843C210.496 54.9086 210.776 53.8908 211.211 52.9501C212.332 50.5189 215.343 50.1668 216.831 52.3857C218.44 54.788 218.74 57.4846 217.488 60.1473V60.1425Z" fill="white"/>
<path d="M201.208 48.6858C199.444 47.6583 197.54 47.5908 195.602 47.7645C191.683 48.1166 188.764 50.8855 188.334 54.5902C187.72 59.9013 189.489 63.6012 193.393 64.8457C196.235 65.7526 199.11 65.3474 201.942 64.6335C202.556 64.4791 203.286 64.3248 203.102 63.4323C202.967 62.7763 202.599 62.3036 201.85 62.1347C200.797 61.8984 199.772 62.1203 198.733 62.1878C195.177 62.4049 193.659 61.6523 193.065 59.472C192.809 58.5313 192.905 58.1502 194.002 58.2853C195.834 58.512 197.675 58.7339 199.521 58.3818C201.85 57.938 203.498 56.8044 203.924 54.2863C204.334 51.831 203.44 49.9786 201.208 48.6762V48.6858ZM195.848 55.5695C194.954 55.1691 193.161 56.129 192.843 54.378C192.499 52.5063 194.872 50.5768 197.056 50.6588C198.738 50.7215 199.869 51.4788 199.879 53.2492C199.888 54.8073 198.443 55.6177 195.848 55.5695Z" fill="white"/>
<path d="M156.884 53.2781C156.657 50.2102 154.955 48.0973 152.399 47.8223C149.925 47.557 147.422 47.5812 145.005 48.3337C144.334 48.5411 143.246 48.5411 143.536 49.776C143.768 50.7697 144.387 51.2714 145.455 51.146C146.88 50.9772 148.311 50.7794 149.741 50.6829C151.292 50.5816 152.351 51.3245 152.839 52.8006C153.24 54.0114 153.182 54.7639 151.486 54.6047C149.504 54.4214 147.494 54.296 145.527 54.9472C142.488 55.9554 141.134 58.8979 142.434 61.826C143.739 64.7637 148.277 66.2398 151.365 64.5949C152.336 64.0787 152.892 63.9196 153.984 64.5467C156.072 65.743 156.927 65.0725 156.937 62.6461C156.937 61.2857 156.937 59.9206 156.937 58.5603C156.922 58.5603 156.913 58.5603 156.898 58.5603C156.898 56.7995 157.004 55.0292 156.874 53.2781H156.884ZM148.886 61.9948C147.33 61.9321 146.001 61.4546 145.952 59.5829C145.909 57.8849 147.571 56.8574 150.244 56.9636C151.007 57.4845 152.911 56.4136 152.911 58.5217C152.911 60.6056 151.143 62.0865 148.886 61.9948Z" fill="white"/>
<path d="M106.572 50.49C106.485 48.5218 105.098 48.0008 103.378 48.0829C101.513 48.1697 102.431 49.6168 102.353 50.4417C102.083 53.3023 102.701 56.2062 101.933 59.0523C101.397 61.0349 100.126 62.0045 98.0814 61.9466C96.0179 61.8887 95.0514 60.5381 94.7615 58.7532C94.5198 57.2627 94.631 55.719 94.5923 54.1947C94.5585 52.8344 94.6648 51.4547 94.486 50.1137C94.2347 48.2372 92.7463 48.0008 91.2144 48.0877C89.523 48.1842 90.3349 49.5348 90.301 50.3018C90.1947 52.7041 90.1706 55.116 90.2817 57.5183C90.562 63.606 96.0228 66.9055 101.261 64.1367C102.179 63.6543 102.547 63.9726 103.281 64.4164C105.519 65.7671 106.616 65.0821 106.62 62.5158C106.62 60.7503 106.62 58.9896 106.62 57.2241C106.611 57.2241 106.601 57.2241 106.587 57.2241C106.587 54.981 106.664 52.7282 106.563 50.49H106.572Z" fill="white"/>
<path d="M126.105 48.16C122.452 48.7196 121.944 46.819 122.263 43.9536C122.297 43.6497 122.21 43.3024 122.08 43.0178C121.471 41.7057 120.258 41.5562 119.03 41.5948C117.542 41.643 118.098 42.849 118.083 43.5918C118.02 46.5537 118.059 49.5155 118.059 52.4774C118.059 53.7605 118.045 55.0389 118.059 56.3172C118.093 58.5554 118.04 60.8034 118.223 63.0272C118.373 64.812 119.881 65.0049 121.287 65.0146C122.998 65.0242 122.273 63.6398 122.297 62.8728C122.384 59.993 122.365 57.1083 122.321 54.2284C122.292 52.4436 122.012 50.6298 124.82 50.9579C125.482 51.0351 126.236 50.5671 126.535 49.8243C126.796 49.1779 127.55 47.9333 126.1 48.16H126.105Z" fill="white"/>
<path d="M114.425 54.2622C114.425 50.8952 114.454 47.5281 114.411 44.1659C114.382 42.1929 113.043 41.6044 111.332 41.5851C109.293 41.561 110.148 43.1529 110.139 44.0405C110.061 49.7278 110.1 55.4199 110.105 61.1073C110.105 61.9804 110.023 62.868 110.472 63.6928C111.173 64.9712 112.391 65.1062 113.594 65.0001C115.039 64.8747 114.377 63.6446 114.396 62.921C114.473 60.0364 114.43 57.1517 114.425 54.267V54.2622Z" fill="white"/>
<path d="M139.578 48.025C137.839 47.5619 136.06 47.3545 134.495 48.4688C133.692 49.038 133.296 49.1682 132.31 48.546C130.15 47.1808 129.005 47.9719 129 50.5141C129 52.2796 129 54.0403 129 55.8059C129.029 55.8059 129.053 55.8059 129.082 55.8059C129.082 58.131 128.966 60.4609 129.121 62.7715C129.242 64.5853 130.672 65.0725 132.252 65.0243C134.118 64.9712 133.209 63.4903 133.277 62.6702C133.518 59.6457 133.011 56.5873 133.663 53.5676C134.069 51.7008 135.065 50.7408 137.041 51.0399C138.119 51.2039 139.168 51.093 139.994 50.3694C141.062 49.4335 141.313 48.4929 139.574 48.0298L139.578 48.025Z" fill="white"/>
<path d="M53.2742 74.6237C50.1572 77.3491 46.8082 79.0713 42.9567 79.8382C47.4171 80.229 51.7809 80.0601 56.2365 78.0872C54.6708 77.1803 53.8686 76.0612 53.2742 74.6237Z" fill="white"/>
<defs>
<linearGradient id="paint0_linear_2422_2053" x1="240.715" y1="-46.6267" x2="-5.7169" y2="28.9586" gradientUnits="userSpaceOnUse">
<stop stop-color="#DCDAE2"/>
<stop offset="1" stop-color="#7A7786" stop-opacity="0"/>
</linearGradient>
</defs>
</svg>
